{
	"patcher" : 	{
		"fileversion" : 1,
		"appversion" : 		{
			"major" : 5,
			"minor" : 1,
			"revision" : 9
		}
,
		"rect" : [ 730.0, 250.0, 696.0, 280.0 ],
		"bgcolor" : [ 1.0, 1.0, 1.0, 1.0 ],
		"bglocked" : 0,
		"defrect" : [ 730.0, 250.0, 696.0, 280.0 ],
		"openrect" : [ 0.0, 0.0, 0.0, 0.0 ],
		"openinpresentation" : 1,
		"default_fontsize" : 10.0,
		"default_fontface" : 0,
		"default_fontname" : "Arial",
		"gridonopen" : 0,
		"gridsize" : [ 15.0, 15.0 ],
		"gridsnaponopen" : 0,
		"toolbarvisible" : 1,
		"boxanimatetime" : 200,
		"imprint" : 1,
		"enablehscroll" : 1,
		"enablevscroll" : 1,
		"devicewidth" : 0.0,
		"boxes" : [ 			{
				"box" : 				{
					"maxclass" : "comment",
					"text" : "6.",
					"frgb" : [ 0.0, 0.0, 0.0, 1.0 ],
					"fontname" : "Arial",
					"patching_rect" : [ 447.0, 186.0, 49.0, 20.0 ],
					"presentation" : 1,
					"id" : "obj-175",
					"underline" : 0,
					"textcolor" : [ 0.0, 0.0, 0.0, 1.0 ],
					"fontface" : 0,
					"fontsize" : 11.595187,
					"background" : 0,
					"ignoreclick" : 1,
					"numinlets" : 1,
					"presentation_rect" : [ 451.0, 186.0, 23.0, 20.0 ],
					"hidden" : 0,
					"bgcolor" : [ 0.12549, 0.541176, 0.188235, 0.568627 ],
					"numoutlets" : 0
				}

			}
, 			{
				"box" : 				{
					"maxclass" : "comment",
					"text" : "< clear the plot",
					"linecount" : 2,
					"frgb" : [ 0.0, 0.0, 0.0, 1.0 ],
					"fontname" : "Arial",
					"patching_rect" : [ 529.0, 191.0, 49.0, 33.0 ],
					"presentation" : 1,
					"id" : "obj-174",
					"underline" : 0,
					"textcolor" : [ 0.0, 0.0, 0.0, 1.0 ],
					"fontface" : 0,
					"fontsize" : 11.595187,
					"background" : 0,
					"ignoreclick" : 1,
					"numinlets" : 1,
					"presentation_rect" : [ 520.0, 185.0, 130.0, 20.0 ],
					"hidden" : 0,
					"bgcolor" : [ 1.0, 1.0, 1.0, 0.0 ],
					"numoutlets" : 0
				}

			}
, 			{
				"box" : 				{
					"maxclass" : "comment",
					"text" : "4.",
					"frgb" : [ 0.0, 0.0, 0.0, 1.0 ],
					"fontname" : "Arial",
					"patching_rect" : [ 722.0, 89.0, 49.0, 20.0 ],
					"presentation" : 1,
					"id" : "obj-173",
					"underline" : 0,
					"textcolor" : [ 0.0, 0.0, 0.0, 1.0 ],
					"fontface" : 0,
					"fontsize" : 11.595187,
					"background" : 0,
					"ignoreclick" : 1,
					"numinlets" : 1,
					"presentation_rect" : [ 450.0, 124.0, 23.0, 20.0 ],
					"hidden" : 0,
					"bgcolor" : [ 0.12549, 0.541176, 0.188235, 0.568627 ],
					"numoutlets" : 0
				}

			}
, 			{
				"box" : 				{
					"maxclass" : "comment",
					"text" : "2.",
					"frgb" : [ 0.0, 0.0, 0.0, 1.0 ],
					"fontname" : "Arial",
					"patching_rect" : [ 720.0, 93.0, 49.0, 20.0 ],
					"presentation" : 1,
					"id" : "obj-172",
					"underline" : 0,
					"textcolor" : [ 0.0, 0.0, 0.0, 1.0 ],
					"fontface" : 0,
					"fontsize" : 11.595187,
					"background" : 0,
					"ignoreclick" : 1,
					"numinlets" : 1,
					"presentation_rect" : [ 451.0, 69.0, 23.0, 20.0 ],
					"hidden" : 0,
					"bgcolor" : [ 0.12549, 0.541176, 0.188235, 0.568627 ],
					"numoutlets" : 0
				}

			}
, 			{
				"box" : 				{
					"maxclass" : "comment",
					"text" : "5.",
					"frgb" : [ 0.0, 0.0, 0.0, 1.0 ],
					"fontname" : "Arial",
					"patching_rect" : [ 690.0, 46.0, 49.0, 20.0 ],
					"presentation" : 1,
					"id" : "obj-171",
					"underline" : 0,
					"textcolor" : [ 0.0, 0.0, 0.0, 1.0 ],
					"fontface" : 0,
					"fontsize" : 11.595187,
					"background" : 0,
					"ignoreclick" : 1,
					"numinlets" : 1,
					"presentation_rect" : [ 450.0, 157.0, 23.0, 20.0 ],
					"hidden" : 0,
					"bgcolor" : [ 1.0, 0.227451, 0.227451, 0.568627 ],
					"numoutlets" : 0
				}

			}
, 			{
				"box" : 				{
					"maxclass" : "comment",
					"text" : "3.",
					"frgb" : [ 0.0, 0.0, 0.0, 1.0 ],
					"fontname" : "Arial",
					"patching_rect" : [ 743.0, 22.0, 49.0, 20.0 ],
					"presentation" : 1,
					"id" : "obj-170",
					"underline" : 0,
					"textcolor" : [ 0.0, 0.0, 0.0, 1.0 ],
					"fontface" : 0,
					"fontsize" : 11.595187,
					"background" : 0,
					"ignoreclick" : 1,
					"numinlets" : 1,
					"presentation_rect" : [ 450.0, 98.0, 23.0, 20.0 ],
					"hidden" : 0,
					"bgcolor" : [ 1.0, 0.227451, 0.227451, 0.568627 ],
					"numoutlets" : 0
				}

			}
, 			{
				"box" : 				{
					"maxclass" : "comment",
					"text" : "1.",
					"frgb" : [ 0.0, 0.0, 0.0, 1.0 ],
					"fontname" : "Arial",
					"patching_rect" : [ 733.0, 61.0, 49.0, 20.0 ],
					"presentation" : 1,
					"id" : "obj-169",
					"underline" : 0,
					"textcolor" : [ 0.0, 0.0, 0.0, 1.0 ],
					"fontface" : 0,
					"fontsize" : 11.595187,
					"background" : 0,
					"ignoreclick" : 1,
					"numinlets" : 1,
					"presentation_rect" : [ 450.0, 40.0, 23.0, 20.0 ],
					"hidden" : 0,
					"bgcolor" : [ 1.0, 0.227451, 0.227451, 0.568627 ],
					"numoutlets" : 0
				}

			}
, 			{
				"box" : 				{
					"maxclass" : "comment",
					"text" : "< clear data b4 running",
					"linecount" : 3,
					"presentation_linecount" : 2,
					"frgb" : [ 0.0, 0.0, 0.0, 1.0 ],
					"fontname" : "Arial",
					"patching_rect" : [ 298.0, 33.0, 50.0, 46.0 ],
					"presentation" : 1,
					"id" : "obj-168",
					"underline" : 0,
					"textcolor" : [ 0.0, 0.0, 0.0, 1.0 ],
					"fontface" : 0,
					"fontsize" : 11.595187,
					"background" : 0,
					"ignoreclick" : 1,
					"numinlets" : 1,
					"presentation_rect" : [ 539.0, 61.0, 80.0, 33.0 ],
					"hidden" : 0,
					"bgcolor" : [ 1.0, 1.0, 1.0, 0.0 ],
					"numoutlets" : 0
				}

			}
, 			{
				"box" : 				{
					"maxclass" : "comment",
					"text" : "< save data",
					"linecount" : 2,
					"frgb" : [ 0.0, 0.0, 0.0, 1.0 ],
					"fontname" : "Arial",
					"patching_rect" : [ 192.0, 338.0, 49.0, 33.0 ],
					"presentation" : 1,
					"id" : "obj-167",
					"underline" : 0,
					"textcolor" : [ 0.0, 0.0, 0.0, 1.0 ],
					"fontface" : 0,
					"fontsize" : 11.595187,
					"background" : 0,
					"ignoreclick" : 1,
					"numinlets" : 1,
					"presentation_rect" : [ 531.0, 153.0, 80.0, 20.0 ],
					"hidden" : 0,
					"bgcolor" : [ 1.0, 1.0, 1.0, 0.0 ],
					"numoutlets" : 0
				}

			}
, 			{
				"box" : 				{
					"maxclass" : "toggle",
					"checkedcolor" : [ 0.0, 0.0, 0.0, 1.0 ],
					"patching_rect" : [ 717.0, 229.0, 20.0, 20.0 ],
					"outlettype" : [ "int" ],
					"presentation" : 1,
					"id" : "obj-166",
					"background" : 0,
					"bordercolor" : [ 0.5, 0.5, 0.5, 1.0 ],
					"ignoreclick" : 0,
					"numinlets" : 1,
					"presentation_rect" : [ 487.0, 184.0, 20.0, 20.0 ],
					"hidden" : 0,
					"bgcolor" : [ 1.0, 1.0, 1.0, 1.0 ],
					"numoutlets" : 1
				}

			}
, 			{
				"box" : 				{
					"maxclass" : "newobj",
					"text" : "metro 2",
					"fontname" : "Arial",
					"patching_rect" : [ 695.0, 276.0, 44.0, 18.0 ],
					"outlettype" : [ "bang" ],
					"presentation" : 0,
					"id" : "obj-160",
					"textcolor" : [ 0.0, 0.0, 0.0, 1.0 ],
					"fontface" : 0,
					"fontsize" : 10.0,
					"background" : 0,
					"color" : [ 0.8, 0.84, 0.71, 1.0 ],
					"ignoreclick" : 0,
					"numinlets" : 2,
					"presentation_rect" : [ 0.0, 0.0, 0.0, 0.0 ],
					"hidden" : 0,
					"bgcolor" : [ 1.0, 1.0, 1.0, 1.0 ],
					"numoutlets" : 1
				}

			}
, 			{
				"box" : 				{
					"maxclass" : "button",
					"fgcolor" : [ 1.0, 1.0, 1.0, 1.0 ],
					"patching_rect" : [ 650.0, 227.0, 20.0, 20.0 ],
					"outlettype" : [ "bang" ],
					"presentation" : 0,
					"id" : "obj-157",
					"blinkcolor" : [ 1.0, 0.890196, 0.090196, 1.0 ],
					"background" : 0,
					"outlinecolor" : [ 0.71328, 0.71328, 0.71328, 1.0 ],
					"ignoreclick" : 0,
					"numinlets" : 1,
					"presentation_rect" : [ 0.0, 0.0, 0.0, 0.0 ],
					"hidden" : 0,
					"bgcolor" : [ 0.91328, 0.91328, 0.91328, 0.75 ],
					"numoutlets" : 1
				}

			}
, 			{
				"box" : 				{
					"maxclass" : "newobj",
					"text" : "uzi 127",
					"fontname" : "Arial",
					"patching_rect" : [ 645.0, 255.0, 46.0, 18.0 ],
					"outlettype" : [ "bang", "bang", "int" ],
					"presentation" : 0,
					"id" : "obj-155",
					"textcolor" : [ 0.0, 0.0, 0.0, 1.0 ],
					"fontface" : 0,
					"fontsize" : 10.0,
					"background" : 0,
					"color" : [ 0.8, 0.84, 0.71, 1.0 ],
					"ignoreclick" : 0,
					"numinlets" : 2,
					"presentation_rect" : [ 0.0, 0.0, 0.0, 0.0 ],
					"hidden" : 0,
					"bgcolor" : [ 1.0, 1.0, 1.0, 1.0 ],
					"numoutlets" : 3
				}

			}
, 			{
				"box" : 				{
					"maxclass" : "message",
					"text" : "int 0",
					"fontname" : "Arial",
					"patching_rect" : [ 624.0, 291.0, 32.5, 16.0 ],
					"outlettype" : [ "" ],
					"presentation" : 0,
					"id" : "obj-154",
					"textcolor" : [ 0.0, 0.0, 0.0, 1.0 ],
					"fontface" : 0,
					"fontsize" : 10.0,
					"background" : 0,
					"bgcolor2" : [ 0.867, 0.867, 0.867, 1.0 ],
					"ignoreclick" : 0,
					"numinlets" : 2,
					"presentation_rect" : [ 0.0, 0.0, 0.0, 0.0 ],
					"hidden" : 0,
					"bgcolor" : [ 0.867, 0.867, 0.867, 1.0 ],
					"gradient" : 0,
					"numoutlets" : 1
				}

			}
, 			{
				"box" : 				{
					"maxclass" : "message",
					"text" : "write",
					"fontname" : "Arial",
					"patching_rect" : [ 479.0, 504.0, 32.5, 16.0 ],
					"outlettype" : [ "" ],
					"presentation" : 1,
					"id" : "obj-152",
					"textcolor" : [ 0.0, 0.0, 0.0, 1.0 ],
					"fontface" : 0,
					"fontsize" : 10.0,
					"background" : 0,
					"bgcolor2" : [ 0.867, 0.867, 0.867, 1.0 ],
					"ignoreclick" : 0,
					"numinlets" : 2,
					"presentation_rect" : [ 484.0, 157.0, 36.0, 16.0 ],
					"hidden" : 0,
					"bgcolor" : [ 0.867, 0.867, 0.867, 1.0 ],
					"gradient" : 0,
					"numoutlets" : 1
				}

			}
, 			{
				"box" : 				{
					"maxclass" : "message",
					"text" : "clear",
					"fontname" : "Arial",
					"patching_rect" : [ 484.0, 448.0, 50.0, 16.0 ],
					"outlettype" : [ "" ],
					"presentation" : 1,
					"id" : "obj-150",
					"textcolor" : [ 0.0, 0.0, 0.0, 1.0 ],
					"fontface" : 0,
					"fontsize" : 10.0,
					"background" : 0,
					"bgcolor2" : [ 0.867, 0.867, 0.867, 1.0 ],
					"ignoreclick" : 0,
					"numinlets" : 2,
					"presentation_rect" : [ 482.0, 68.0, 50.0, 16.0 ],
					"hidden" : 0,
					"bgcolor" : [ 0.867, 0.867, 0.867, 1.0 ],
					"gradient" : 0,
					"numoutlets" : 1
				}

			}
, 			{
				"box" : 				{
					"maxclass" : "newobj",
					"text" : "trigger cr s",
					"fontname" : "Arial",
					"patching_rect" : [ 373.0, 413.0, 58.0, 18.0 ],
					"outlettype" : [ "cr", "" ],
					"presentation" : 0,
					"id" : "obj-148",
					"textcolor" : [ 0.0, 0.0, 0.0, 1.0 ],
					"fontface" : 0,
					"fontsize" : 10.0,
					"background" : 0,
					"color" : [ 0.8, 0.84, 0.71, 1.0 ],
					"ignoreclick" : 0,
					"numinlets" : 1,
					"presentation_rect" : [ 0.0, 0.0, 0.0, 0.0 ],
					"hidden" : 0,
					"bgcolor" : [ 1.0, 1.0, 1.0, 1.0 ],
					"numoutlets" : 2
				}

			}
, 			{
				"box" : 				{
					"maxclass" : "newobj",
					"text" : "text",
					"fontname" : "Arial",
					"patching_rect" : [ 392.0, 452.0, 46.0, 18.0 ],
					"outlettype" : [ "", "bang", "int" ],
					"presentation" : 0,
					"id" : "obj-147",
					"textcolor" : [ 0.0, 0.0, 0.0, 1.0 ],
					"fontface" : 0,
					"fontsize" : 10.0,
					"background" : 0,
					"color" : [ 0.8, 0.84, 0.71, 1.0 ],
					"ignoreclick" : 0,
					"numinlets" : 1,
					"presentation_rect" : [ 0.0, 0.0, 0.0, 0.0 ],
					"hidden" : 0,
					"bgcolor" : [ 1.0, 1.0, 1.0, 1.0 ],
					"numoutlets" : 3
				}

			}
, 			{
				"box" : 				{
					"maxclass" : "newobj",
					"text" : "abs",
					"fontname" : "Arial",
					"patching_rect" : [ 258.0, 424.0, 27.0, 18.0 ],
					"outlettype" : [ "int" ],
					"presentation" : 0,
					"id" : "obj-68",
					"textcolor" : [ 0.0, 0.0, 0.0, 1.0 ],
					"fontface" : 0,
					"fontsize" : 10.0,
					"background" : 0,
					"color" : [ 0.8, 0.84, 0.71, 1.0 ],
					"ignoreclick" : 0,
					"numinlets" : 1,
					"presentation_rect" : [ 0.0, 0.0, 0.0, 0.0 ],
					"hidden" : 0,
					"bgcolor" : [ 1.0, 1.0, 1.0, 1.0 ],
					"numoutlets" : 1
				}

			}
, 			{
				"box" : 				{
					"maxclass" : "newobj",
					"text" : "r gateONOFF",
					"fontname" : "Arial",
					"patching_rect" : [ 268.0, 366.0, 71.0, 18.0 ],
					"outlettype" : [ "" ],
					"presentation" : 0,
					"id" : "obj-17",
					"textcolor" : [ 0.0, 0.0, 0.0, 1.0 ],
					"fontface" : 0,
					"fontsize" : 10.0,
					"background" : 0,
					"color" : [ 0.8, 0.84, 0.71, 1.0 ],
					"ignoreclick" : 0,
					"numinlets" : 0,
					"presentation_rect" : [ 0.0, 0.0, 0.0, 0.0 ],
					"hidden" : 0,
					"bgcolor" : [ 1.0, 1.0, 1.0, 1.0 ],
					"numoutlets" : 1
				}

			}
, 			{
				"box" : 				{
					"maxclass" : "newobj",
					"text" : "s gateONOFF",
					"fontname" : "Arial",
					"patching_rect" : [ 488.0, 229.0, 73.0, 18.0 ],
					"presentation" : 0,
					"id" : "obj-13",
					"textcolor" : [ 0.0, 0.0, 0.0, 1.0 ],
					"fontface" : 0,
					"fontsize" : 10.0,
					"background" : 0,
					"color" : [ 0.8, 0.84, 0.71, 1.0 ],
					"ignoreclick" : 0,
					"numinlets" : 1,
					"presentation_rect" : [ 0.0, 0.0, 0.0, 0.0 ],
					"hidden" : 0,
					"bgcolor" : [ 1.0, 1.0, 1.0, 1.0 ],
					"numoutlets" : 0
				}

			}
, 			{
				"box" : 				{
					"maxclass" : "newobj",
					"text" : "gate",
					"fontname" : "Arial",
					"patching_rect" : [ 258.0, 402.0, 32.5, 18.0 ],
					"outlettype" : [ "" ],
					"presentation" : 0,
					"id" : "obj-12",
					"textcolor" : [ 0.0, 0.0, 0.0, 1.0 ],
					"fontface" : 0,
					"fontsize" : 10.0,
					"background" : 0,
					"color" : [ 0.8, 0.84, 0.71, 1.0 ],
					"ignoreclick" : 0,
					"numinlets" : 2,
					"presentation_rect" : [ 0.0, 0.0, 0.0, 0.0 ],
					"hidden" : 0,
					"bgcolor" : [ 1.0, 1.0, 1.0, 1.0 ],
					"numoutlets" : 1
				}

			}
, 			{
				"box" : 				{
					"maxclass" : "multislider",
					"border_left" : 1,
					"thickness" : 2,
					"ghostbar" : 0,
					"candicane6" : [ 0.733333, 0.035294, 0.788235, 1.0 ],
					"patching_rect" : [ 273.0, 539.0, 196.0, 92.0 ],
					"outlettype" : [ "", "" ],
					"presentation" : 1,
					"id" : "obj-27",
					"border_right" : 1,
					"contdata" : 0,
					"candycane" : 1,
					"candicane5" : [ 0.584314, 0.827451, 0.431373, 1.0 ],
					"orientation" : 1,
					"settype" : 0,
					"spacing" : 0,
					"border_bottom" : 1,
					"background" : 0,
					"signed" : 0,
					"candicane4" : [ 0.439216, 0.619608, 0.070588, 1.0 ],
					"size" : 1,
					"compatibility" : 0,
					"slidercolor" : [ 0.0, 0.0, 0.0, 1.0 ],
					"peakcolor" : [ 0.498039, 0.498039, 0.498039, 1.0 ],
					"setstyle" : 3,
					"bordercolor" : [ 0.0, 0.0, 0.0, 1.0 ],
					"candicane3" : [ 0.290196, 0.411765, 0.713726, 1.0 ],
					"setminmax" : [ 0.0, 127.0 ],
					"ignoreclick" : 0,
					"candicane8" : [ 0.027451, 0.447059, 0.501961, 1.0 ],
					"numinlets" : 1,
					"presentation_rect" : [ 35.0, 44.0, 364.304352, 171.0 ],
					"candicane2" : [ 0.145098, 0.203922, 0.356863, 1.0 ],
					"border_top" : 1,
					"drawpeaks" : 0,
					"hidden" : 0,
					"bgcolor" : [ 1.0, 1.0, 1.0, 1.0 ],
					"candicane7" : [ 0.878431, 0.243137, 0.145098, 1.0 ],
					"numoutlets" : 2
				}

			}
, 			{
				"box" : 				{
					"maxclass" : "newobj",
					"text" : "scale 0 140000 0. 127",
					"fontname" : "Arial",
					"patching_rect" : [ 258.0, 448.0, 109.0, 18.0 ],
					"outlettype" : [ "" ],
					"presentation" : 0,
					"id" : "obj-10",
					"textcolor" : [ 0.0, 0.0, 0.0, 1.0 ],
					"fontface" : 0,
					"fontsize" : 10.0,
					"background" : 0,
					"color" : [ 0.8, 0.84, 0.71, 1.0 ],
					"ignoreclick" : 0,
					"numinlets" : 6,
					"presentation_rect" : [ 0.0, 0.0, 0.0, 0.0 ],
					"hidden" : 0,
					"bgcolor" : [ 1.0, 1.0, 1.0, 1.0 ],
					"numoutlets" : 1
				}

			}
, 			{
				"box" : 				{
					"maxclass" : "newobj",
					"text" : "trigger b 0",
					"fontname" : "Arial",
					"patching_rect" : [ 534.0, 196.0, 56.0, 18.0 ],
					"outlettype" : [ "bang", "int" ],
					"presentation" : 0,
					"id" : "obj-57",
					"textcolor" : [ 0.0, 0.0, 0.0, 1.0 ],
					"fontface" : 0,
					"fontsize" : 10.0,
					"background" : 0,
					"color" : [ 0.8, 0.84, 0.71, 1.0 ],
					"ignoreclick" : 0,
					"numinlets" : 1,
					"presentation_rect" : [ 0.0, 0.0, 0.0, 0.0 ],
					"hidden" : 0,
					"bgcolor" : [ 1.0, 1.0, 1.0, 1.0 ],
					"numoutlets" : 2
				}

			}
, 			{
				"box" : 				{
					"maxclass" : "newobj",
					"text" : "trigger b 1",
					"fontname" : "Arial",
					"patching_rect" : [ 439.0, 166.0, 56.0, 18.0 ],
					"outlettype" : [ "bang", "int" ],
					"presentation" : 0,
					"id" : "obj-56",
					"textcolor" : [ 0.0, 0.0, 0.0, 1.0 ],
					"fontface" : 0,
					"fontsize" : 10.0,
					"background" : 0,
					"color" : [ 0.8, 0.84, 0.71, 1.0 ],
					"ignoreclick" : 0,
					"numinlets" : 1,
					"presentation_rect" : [ 0.0, 0.0, 0.0, 0.0 ],
					"hidden" : 0,
					"bgcolor" : [ 1.0, 1.0, 1.0, 1.0 ],
					"numoutlets" : 2
				}

			}
, 			{
				"box" : 				{
					"maxclass" : "newobj",
					"text" : "gate",
					"fontname" : "Arial",
					"patching_rect" : [ 359.0, 391.0, 32.5, 18.0 ],
					"outlettype" : [ "" ],
					"presentation" : 0,
					"id" : "obj-49",
					"textcolor" : [ 0.0, 0.0, 0.0, 1.0 ],
					"fontface" : 0,
					"fontsize" : 10.0,
					"background" : 0,
					"color" : [ 0.8, 0.84, 0.71, 1.0 ],
					"ignoreclick" : 0,
					"numinlets" : 2,
					"presentation_rect" : [ 0.0, 0.0, 0.0, 0.0 ],
					"hidden" : 0,
					"bgcolor" : [ 1.0, 1.0, 1.0, 1.0 ],
					"numoutlets" : 1
				}

			}
, 			{
				"box" : 				{
					"maxclass" : "message",
					"text" : "STOP COLLECTING",
					"fontname" : "Arial",
					"patching_rect" : [ 534.0, 174.0, 104.0, 16.0 ],
					"outlettype" : [ "" ],
					"presentation" : 1,
					"id" : "obj-45",
					"textcolor" : [ 0.0, 0.0, 0.0, 1.0 ],
					"fontface" : 0,
					"fontsize" : 10.0,
					"background" : 0,
					"bgcolor2" : [ 0.867, 0.867, 0.867, 1.0 ],
					"ignoreclick" : 0,
					"numinlets" : 2,
					"presentation_rect" : [ 484.0, 125.0, 104.0, 16.0 ],
					"hidden" : 0,
					"bgcolor" : [ 0.867, 0.867, 0.867, 1.0 ],
					"gradient" : 0,
					"numoutlets" : 1
				}

			}
, 			{
				"box" : 				{
					"maxclass" : "message",
					"text" : "START COLLECTING",
					"fontname" : "Arial",
					"patching_rect" : [ 439.0, 145.0, 110.0, 16.0 ],
					"outlettype" : [ "" ],
					"presentation" : 1,
					"id" : "obj-43",
					"textcolor" : [ 0.0, 0.0, 0.0, 1.0 ],
					"fontface" : 0,
					"fontsize" : 10.0,
					"background" : 0,
					"bgcolor2" : [ 0.867, 0.867, 0.867, 1.0 ],
					"ignoreclick" : 0,
					"numinlets" : 2,
					"presentation_rect" : [ 483.0, 100.0, 110.0, 16.0 ],
					"hidden" : 0,
					"bgcolor" : [ 0.867, 0.867, 0.867, 1.0 ],
					"gradient" : 0,
					"numoutlets" : 1
				}

			}
, 			{
				"box" : 				{
					"maxclass" : "newobj",
					"text" : "sprintf symout %s\\, %.2f",
					"fontname" : "Arial",
					"patching_rect" : [ 316.0, 315.0, 118.0, 18.0 ],
					"outlettype" : [ "" ],
					"presentation" : 0,
					"id" : "obj-93",
					"textcolor" : [ 0.0, 0.0, 0.0, 1.0 ],
					"fontface" : 0,
					"fontsize" : 10.0,
					"background" : 0,
					"color" : [ 0.8, 0.84, 0.71, 1.0 ],
					"ignoreclick" : 0,
					"numinlets" : 2,
					"presentation_rect" : [ 0.0, 0.0, 0.0, 0.0 ],
					"hidden" : 0,
					"bgcolor" : [ 1.0, 1.0, 1.0, 1.0 ],
					"numoutlets" : 1
				}

			}
, 			{
				"box" : 				{
					"maxclass" : "newobj",
					"text" : "b",
					"fontname" : "Arial",
					"patching_rect" : [ 454.0, 233.0, 32.5, 18.0 ],
					"outlettype" : [ "bang", "bang" ],
					"presentation" : 0,
					"id" : "obj-92",
					"textcolor" : [ 0.0, 0.0, 0.0, 1.0 ],
					"fontface" : 0,
					"fontsize" : 10.0,
					"background" : 0,
					"color" : [ 0.8, 0.84, 0.71, 1.0 ],
					"ignoreclick" : 0,
					"numinlets" : 1,
					"presentation_rect" : [ 0.0, 0.0, 0.0, 0.0 ],
					"hidden" : 0,
					"bgcolor" : [ 1.0, 1.0, 1.0, 1.0 ],
					"numoutlets" : 2
				}

			}
, 			{
				"box" : 				{
					"maxclass" : "button",
					"fgcolor" : [ 1.0, 1.0, 1.0, 1.0 ],
					"patching_rect" : [ 439.0, 189.0, 20.0, 20.0 ],
					"outlettype" : [ "bang" ],
					"presentation" : 0,
					"id" : "obj-83",
					"blinkcolor" : [ 1.0, 0.890196, 0.090196, 1.0 ],
					"background" : 0,
					"outlinecolor" : [ 0.71328, 0.71328, 0.71328, 1.0 ],
					"ignoreclick" : 0,
					"numinlets" : 1,
					"presentation_rect" : [ 0.0, 0.0, 0.0, 0.0 ],
					"hidden" : 0,
					"bgcolor" : [ 0.91328, 0.91328, 0.91328, 0.75 ],
					"numoutlets" : 1
				}

			}
, 			{
				"box" : 				{
					"maxclass" : "newobj",
					"text" : "timer",
					"fontname" : "Arial",
					"patching_rect" : [ 432.0, 268.0, 33.0, 18.0 ],
					"outlettype" : [ "float", "" ],
					"presentation" : 0,
					"id" : "obj-81",
					"textcolor" : [ 0.0, 0.0, 0.0, 1.0 ],
					"fontface" : 0,
					"fontsize" : 10.0,
					"background" : 0,
					"color" : [ 0.8, 0.84, 0.71, 1.0 ],
					"ignoreclick" : 0,
					"numinlets" : 2,
					"presentation_rect" : [ 0.0, 0.0, 0.0, 0.0 ],
					"hidden" : 0,
					"bgcolor" : [ 1.0, 1.0, 1.0, 1.0 ],
					"numoutlets" : 2
				}

			}
, 			{
				"box" : 				{
					"maxclass" : "comment",
					"text" : "3",
					"frgb" : [ 0.0, 0.0, 0.0, 1.0 ],
					"fontname" : "Arial",
					"patching_rect" : [ 34.0, 249.0, 19.0, 20.0 ],
					"presentation" : 0,
					"id" : "obj-42",
					"underline" : 0,
					"textcolor" : [ 0.0, 0.0, 0.0, 1.0 ],
					"fontface" : 0,
					"fontsize" : 11.595187,
					"background" : 0,
					"ignoreclick" : 1,
					"numinlets" : 1,
					"presentation_rect" : [ 0.0, 0.0, 0.0, 0.0 ],
					"hidden" : 0,
					"bgcolor" : [ 1.0, 1.0, 1.0, 0.0 ],
					"numoutlets" : 0
				}

			}
, 			{
				"box" : 				{
					"maxclass" : "comment",
					"text" : "2",
					"frgb" : [ 0.0, 0.0, 0.0, 1.0 ],
					"fontname" : "Arial",
					"patching_rect" : [ 319.0, 197.0, 19.0, 20.0 ],
					"presentation" : 0,
					"id" : "obj-41",
					"underline" : 0,
					"textcolor" : [ 0.0, 0.0, 0.0, 1.0 ],
					"fontface" : 0,
					"fontsize" : 11.595187,
					"background" : 0,
					"ignoreclick" : 1,
					"numinlets" : 1,
					"presentation_rect" : [ 0.0, 0.0, 0.0, 0.0 ],
					"hidden" : 0,
					"bgcolor" : [ 1.0, 1.0, 1.0, 0.0 ],
					"numoutlets" : 0
				}

			}
, 			{
				"box" : 				{
					"maxclass" : "comment",
					"text" : "1",
					"frgb" : [ 0.0, 0.0, 0.0, 1.0 ],
					"fontname" : "Arial",
					"patching_rect" : [ 245.0, 120.0, 19.0, 20.0 ],
					"presentation" : 0,
					"id" : "obj-40",
					"underline" : 0,
					"textcolor" : [ 0.0, 0.0, 0.0, 1.0 ],
					"fontface" : 0,
					"fontsize" : 11.595187,
					"background" : 0,
					"ignoreclick" : 1,
					"numinlets" : 1,
					"presentation_rect" : [ 0.0, 0.0, 0.0, 0.0 ],
					"hidden" : 0,
					"bgcolor" : [ 1.0, 1.0, 1.0, 0.0 ],
					"numoutlets" : 0
				}

			}
, 			{
				"box" : 				{
					"maxclass" : "toggle",
					"checkedcolor" : [ 0.0, 0.0, 0.0, 1.0 ],
					"patching_rect" : [ 12.0, 249.0, 20.0, 20.0 ],
					"outlettype" : [ "int" ],
					"presentation" : 0,
					"id" : "obj-37",
					"background" : 0,
					"bordercolor" : [ 0.5, 0.5, 0.5, 1.0 ],
					"ignoreclick" : 0,
					"numinlets" : 1,
					"presentation_rect" : [ 0.0, 0.0, 0.0, 0.0 ],
					"hidden" : 0,
					"bgcolor" : [ 1.0, 1.0, 1.0, 1.0 ],
					"numoutlets" : 1
				}

			}
, 			{
				"box" : 				{
					"maxclass" : "newobj",
					"text" : "print formatted",
					"fontname" : "Arial",
					"patching_rect" : [ 12.0, 306.0, 85.0, 20.0 ],
					"presentation" : 0,
					"id" : "obj-38",
					"textcolor" : [ 0.0, 0.0, 0.0, 1.0 ],
					"fontface" : 0,
					"fontsize" : 11.595187,
					"background" : 0,
					"color" : [ 0.8, 0.84, 0.71, 1.0 ],
					"ignoreclick" : 0,
					"numinlets" : 1,
					"presentation_rect" : [ 0.0, 0.0, 0.0, 0.0 ],
					"hidden" : 0,
					"bgcolor" : [ 1.0, 1.0, 1.0, 1.0 ],
					"numoutlets" : 0
				}

			}
, 			{
				"box" : 				{
					"maxclass" : "newobj",
					"text" : "gate",
					"fontname" : "Arial",
					"patching_rect" : [ 12.0, 276.0, 33.0, 20.0 ],
					"outlettype" : [ "" ],
					"presentation" : 0,
					"id" : "obj-39",
					"textcolor" : [ 0.0, 0.0, 0.0, 1.0 ],
					"fontface" : 0,
					"fontsize" : 11.595187,
					"background" : 0,
					"color" : [ 0.8, 0.84, 0.71, 1.0 ],
					"ignoreclick" : 0,
					"numinlets" : 2,
					"presentation_rect" : [ 0.0, 0.0, 0.0, 0.0 ],
					"hidden" : 0,
					"bgcolor" : [ 1.0, 1.0, 1.0, 1.0 ],
					"numoutlets" : 1
				}

			}
, 			{
				"box" : 				{
					"maxclass" : "toggle",
					"checkedcolor" : [ 0.0, 0.0, 0.0, 1.0 ],
					"patching_rect" : [ 297.0, 197.0, 20.0, 20.0 ],
					"outlettype" : [ "int" ],
					"presentation" : 0,
					"id" : "obj-34",
					"background" : 0,
					"bordercolor" : [ 0.5, 0.5, 0.5, 1.0 ],
					"ignoreclick" : 0,
					"numinlets" : 1,
					"presentation_rect" : [ 0.0, 0.0, 0.0, 0.0 ],
					"hidden" : 0,
					"bgcolor" : [ 1.0, 1.0, 1.0, 1.0 ],
					"numoutlets" : 1
				}

			}
, 			{
				"box" : 				{
					"maxclass" : "newobj",
					"text" : "print grouped",
					"fontname" : "Arial",
					"patching_rect" : [ 297.0, 258.0, 79.0, 20.0 ],
					"presentation" : 0,
					"id" : "obj-35",
					"textcolor" : [ 0.0, 0.0, 0.0, 1.0 ],
					"fontface" : 0,
					"fontsize" : 11.595187,
					"background" : 0,
					"color" : [ 0.8, 0.84, 0.71, 1.0 ],
					"ignoreclick" : 0,
					"numinlets" : 1,
					"presentation_rect" : [ 0.0, 0.0, 0.0, 0.0 ],
					"hidden" : 0,
					"bgcolor" : [ 1.0, 1.0, 1.0, 1.0 ],
					"numoutlets" : 0
				}

			}
, 			{
				"box" : 				{
					"maxclass" : "newobj",
					"text" : "gate",
					"fontname" : "Arial",
					"patching_rect" : [ 297.0, 227.0, 33.0, 20.0 ],
					"outlettype" : [ "" ],
					"presentation" : 0,
					"id" : "obj-36",
					"textcolor" : [ 0.0, 0.0, 0.0, 1.0 ],
					"fontface" : 0,
					"fontsize" : 11.595187,
					"background" : 0,
					"color" : [ 0.8, 0.84, 0.71, 1.0 ],
					"ignoreclick" : 0,
					"numinlets" : 2,
					"presentation_rect" : [ 0.0, 0.0, 0.0, 0.0 ],
					"hidden" : 0,
					"bgcolor" : [ 1.0, 1.0, 1.0, 1.0 ],
					"numoutlets" : 1
				}

			}
, 			{
				"box" : 				{
					"maxclass" : "toggle",
					"checkedcolor" : [ 0.0, 0.0, 0.0, 1.0 ],
					"patching_rect" : [ 222.0, 121.0, 20.0, 20.0 ],
					"outlettype" : [ "int" ],
					"presentation" : 0,
					"id" : "obj-33",
					"background" : 0,
					"bordercolor" : [ 0.5, 0.5, 0.5, 1.0 ],
					"ignoreclick" : 0,
					"numinlets" : 1,
					"presentation_rect" : [ 0.0, 0.0, 0.0, 0.0 ],
					"hidden" : 0,
					"bgcolor" : [ 1.0, 1.0, 1.0, 1.0 ],
					"numoutlets" : 1
				}

			}
, 			{
				"box" : 				{
					"maxclass" : "newobj",
					"text" : "print raw",
					"fontname" : "Arial",
					"patching_rect" : [ 222.0, 182.0, 55.0, 20.0 ],
					"presentation" : 0,
					"id" : "obj-32",
					"textcolor" : [ 0.0, 0.0, 0.0, 1.0 ],
					"fontface" : 0,
					"fontsize" : 11.595187,
					"background" : 0,
					"color" : [ 0.8, 0.84, 0.71, 1.0 ],
					"ignoreclick" : 0,
					"numinlets" : 1,
					"presentation_rect" : [ 0.0, 0.0, 0.0, 0.0 ],
					"hidden" : 0,
					"bgcolor" : [ 1.0, 1.0, 1.0, 1.0 ],
					"numoutlets" : 0
				}

			}
, 			{
				"box" : 				{
					"maxclass" : "newobj",
					"text" : "gate",
					"fontname" : "Arial",
					"patching_rect" : [ 222.0, 154.0, 33.0, 20.0 ],
					"outlettype" : [ "" ],
					"presentation" : 0,
					"id" : "obj-25",
					"textcolor" : [ 0.0, 0.0, 0.0, 1.0 ],
					"fontface" : 0,
					"fontsize" : 11.595187,
					"background" : 0,
					"color" : [ 0.8, 0.84, 0.71, 1.0 ],
					"ignoreclick" : 0,
					"numinlets" : 2,
					"presentation_rect" : [ 0.0, 0.0, 0.0, 0.0 ],
					"hidden" : 0,
					"bgcolor" : [ 1.0, 1.0, 1.0, 1.0 ],
					"numoutlets" : 1
				}

			}
, 			{
				"box" : 				{
					"maxclass" : "number",
					"fontname" : "Arial",
					"format" : 0,
					"patching_rect" : [ 123.0, 121.0, 50.0, 20.0 ],
					"outlettype" : [ "int", "bang" ],
					"presentation" : 0,
					"id" : "obj-23",
					"textcolor" : [ 0.0, 0.0, 0.0, 1.0 ],
					"tricolor" : [ 0.75, 0.75, 0.75, 1.0 ],
					"htricolor" : [ 0.87, 0.82, 0.24, 1.0 ],
					"fontface" : 0,
					"fontsize" : 11.595187,
					"background" : 0,
					"triangle" : 1,
					"mouseup" : 0,
					"cantchange" : 0,
					"hbgcolor" : [ 0.0, 0.0, 0.0, 1.0 ],
					"minimum" : "<none>",
					"bordercolor" : [ 0.5, 0.5, 0.5, 1.0 ],
					"triscale" : 1.0,
					"ignoreclick" : 0,
					"numinlets" : 1,
					"htextcolor" : [ 1.0, 1.0, 1.0, 1.0 ],
					"maximum" : "<none>",
					"presentation_rect" : [ 0.0, 0.0, 0.0, 0.0 ],
					"outputonclick" : 0,
					"hidden" : 0,
					"bgcolor" : [ 1.0, 1.0, 1.0, 1.0 ],
					"numoutlets" : 2
				}

			}
, 			{
				"box" : 				{
					"maxclass" : "comment",
					"text" : "< start polling the serial port",
					"frgb" : [ 0.0, 0.0, 0.0, 1.0 ],
					"fontname" : "Arial",
					"patching_rect" : [ 75.0, 29.0, 153.0, 20.0 ],
					"presentation" : 1,
					"id" : "obj-18",
					"underline" : 0,
					"textcolor" : [ 0.0, 0.0, 0.0, 1.0 ],
					"fontface" : 0,
					"fontsize" : 11.595187,
					"background" : 0,
					"ignoreclick" : 1,
					"numinlets" : 1,
					"presentation_rect" : [ 509.0, 40.0, 153.0, 20.0 ],
					"hidden" : 0,
					"bgcolor" : [ 1.0, 1.0, 1.0, 0.0 ],
					"numoutlets" : 0
				}

			}
, 			{
				"box" : 				{
					"maxclass" : "comment",
					"text" : "< send a byte to start the transmission",
					"frgb" : [ 0.0, 0.0, 0.0, 1.0 ],
					"fontname" : "Arial",
					"patching_rect" : [ 233.0, 56.0, 207.0, 20.0 ],
					"presentation" : 0,
					"id" : "obj-14",
					"underline" : 0,
					"textcolor" : [ 0.0, 0.0, 0.0, 1.0 ],
					"fontface" : 0,
					"fontsize" : 11.595187,
					"background" : 0,
					"ignoreclick" : 1,
					"numinlets" : 1,
					"presentation_rect" : [ 0.0, 0.0, 0.0, 0.0 ],
					"hidden" : 0,
					"bgcolor" : [ 1.0, 1.0, 1.0, 0.0 ],
					"numoutlets" : 0
				}

			}
, 			{
				"box" : 				{
					"maxclass" : "comment",
					"text" : "Freq in mHz",
					"linecount" : 2,
					"frgb" : [ 0.0, 0.0, 0.0, 1.0 ],
					"fontname" : "Arial",
					"patching_rect" : [ 177.0, 323.0, 49.0, 33.0 ],
					"presentation" : 1,
					"id" : "obj-15",
					"underline" : 0,
					"textcolor" : [ 0.0, 0.0, 0.0, 1.0 ],
					"fontface" : 0,
					"fontsize" : 11.595187,
					"background" : 0,
					"ignoreclick" : 1,
					"numinlets" : 1,
					"presentation_rect" : [ 309.0, 245.0, 80.0, 20.0 ],
					"hidden" : 0,
					"bgcolor" : [ 1.0, 1.0, 1.0, 0.0 ],
					"numoutlets" : 0
				}

			}
, 			{
				"box" : 				{
					"maxclass" : "number",
					"fontname" : "Arial",
					"format" : 0,
					"patching_rect" : [ 123.0, 323.0, 57.0, 20.0 ],
					"outlettype" : [ "int", "bang" ],
					"presentation" : 1,
					"id" : "obj-11",
					"textcolor" : [ 0.0, 0.0, 0.0, 1.0 ],
					"tricolor" : [ 0.75, 0.75, 0.75, 1.0 ],
					"htricolor" : [ 0.87, 0.82, 0.24, 1.0 ],
					"fontface" : 0,
					"fontsize" : 11.595187,
					"background" : 0,
					"triangle" : 1,
					"mouseup" : 0,
					"cantchange" : 0,
					"hbgcolor" : [ 0.0, 0.0, 0.0, 1.0 ],
					"minimum" : "<none>",
					"bordercolor" : [ 0.5, 0.5, 0.5, 1.0 ],
					"triscale" : 1.0,
					"ignoreclick" : 0,
					"numinlets" : 1,
					"htextcolor" : [ 1.0, 1.0, 1.0, 1.0 ],
					"maximum" : "<none>",
					"presentation_rect" : [ 255.0, 245.0, 57.0, 20.0 ],
					"outputonclick" : 0,
					"hidden" : 0,
					"bgcolor" : [ 1.0, 1.0, 1.0, 1.0 ],
					"numoutlets" : 2
				}

			}
, 			{
				"box" : 				{
					"maxclass" : "newobj",
					"text" : "fromsymbol",
					"fontname" : "Arial",
					"patching_rect" : [ 123.0, 258.0, 70.0, 20.0 ],
					"outlettype" : [ "" ],
					"presentation" : 0,
					"id" : "obj-9",
					"textcolor" : [ 0.0, 0.0, 0.0, 1.0 ],
					"fontface" : 0,
					"fontsize" : 11.595187,
					"background" : 0,
					"color" : [ 0.356863, 0.768627, 0.0, 1.0 ],
					"ignoreclick" : 0,
					"numinlets" : 1,
					"presentation_rect" : [ 0.0, 0.0, 0.0, 0.0 ],
					"hidden" : 0,
					"bgcolor" : [ 1.0, 1.0, 1.0, 1.0 ],
					"numoutlets" : 1
				}

			}
, 			{
				"box" : 				{
					"maxclass" : "newobj",
					"text" : "itoa",
					"fontname" : "Arial",
					"patching_rect" : [ 123.0, 227.0, 46.0, 20.0 ],
					"outlettype" : [ "int" ],
					"presentation" : 0,
					"id" : "obj-8",
					"textcolor" : [ 0.0, 0.0, 0.0, 1.0 ],
					"fontface" : 0,
					"fontsize" : 11.595187,
					"background" : 0,
					"color" : [ 0.356863, 0.768627, 0.0, 1.0 ],
					"ignoreclick" : 0,
					"numinlets" : 3,
					"presentation_rect" : [ 0.0, 0.0, 0.0, 0.0 ],
					"hidden" : 0,
					"bgcolor" : [ 1.0, 1.0, 1.0, 1.0 ],
					"numoutlets" : 1
				}

			}
, 			{
				"box" : 				{
					"maxclass" : "newobj",
					"text" : "zl group 1000",
					"fontname" : "Arial",
					"patching_rect" : [ 123.0, 197.0, 81.0, 20.0 ],
					"outlettype" : [ "", "" ],
					"presentation" : 0,
					"id" : "obj-7",
					"textcolor" : [ 0.0, 0.0, 0.0, 1.0 ],
					"fontface" : 0,
					"fontsize" : 11.595187,
					"background" : 0,
					"color" : [ 0.8, 0.84, 0.71, 1.0 ],
					"ignoreclick" : 0,
					"numinlets" : 2,
					"presentation_rect" : [ 0.0, 0.0, 0.0, 0.0 ],
					"hidden" : 0,
					"bgcolor" : [ 1.0, 1.0, 1.0, 1.0 ],
					"numoutlets" : 2
				}

			}
, 			{
				"box" : 				{
					"maxclass" : "toggle",
					"checkedcolor" : [ 0.0, 0.0, 0.0, 1.0 ],
					"patching_rect" : [ 47.0, 28.0, 20.0, 20.0 ],
					"outlettype" : [ "int" ],
					"presentation" : 1,
					"id" : "obj-6",
					"background" : 0,
					"bordercolor" : [ 0.5, 0.5, 0.5, 1.0 ],
					"ignoreclick" : 0,
					"numinlets" : 1,
					"presentation_rect" : [ 482.0, 40.0, 20.0, 20.0 ],
					"hidden" : 0,
					"bgcolor" : [ 1.0, 1.0, 1.0, 1.0 ],
					"numoutlets" : 1
				}

			}
, 			{
				"box" : 				{
					"maxclass" : "newobj",
					"text" : "metro 100",
					"fontname" : "Arial",
					"patching_rect" : [ 47.0, 56.0, 64.0, 20.0 ],
					"outlettype" : [ "bang" ],
					"presentation" : 0,
					"id" : "obj-5",
					"textcolor" : [ 0.0, 0.0, 0.0, 1.0 ],
					"fontface" : 0,
					"fontsize" : 11.595187,
					"background" : 0,
					"color" : [ 0.8, 0.84, 0.71, 1.0 ],
					"ignoreclick" : 0,
					"numinlets" : 2,
					"presentation_rect" : [ 0.0, 0.0, 0.0, 0.0 ],
					"hidden" : 0,
					"bgcolor" : [ 1.0, 1.0, 1.0, 1.0 ],
					"numoutlets" : 1
				}

			}
, 			{
				"box" : 				{
					"maxclass" : "newobj",
					"text" : "sel 13 10",
					"fontname" : "Arial",
					"patching_rect" : [ 123.0, 154.0, 58.0, 20.0 ],
					"outlettype" : [ "bang", "bang", "" ],
					"presentation" : 0,
					"id" : "obj-4",
					"textcolor" : [ 0.0, 0.0, 0.0, 1.0 ],
					"fontface" : 0,
					"fontsize" : 11.595187,
					"background" : 0,
					"color" : [ 0.8, 0.84, 0.71, 1.0 ],
					"ignoreclick" : 0,
					"numinlets" : 1,
					"presentation_rect" : [ 0.0, 0.0, 0.0, 0.0 ],
					"hidden" : 0,
					"bgcolor" : [ 1.0, 1.0, 1.0, 1.0 ],
					"numoutlets" : 3
				}

			}
, 			{
				"box" : 				{
					"maxclass" : "number",
					"fontname" : "Arial",
					"format" : 0,
					"patching_rect" : [ 171.0, 56.0, 50.0, 20.0 ],
					"outlettype" : [ "int", "bang" ],
					"presentation" : 0,
					"id" : "obj-3",
					"textcolor" : [ 0.0, 0.0, 0.0, 1.0 ],
					"tricolor" : [ 0.75, 0.75, 0.75, 1.0 ],
					"htricolor" : [ 0.87, 0.82, 0.24, 1.0 ],
					"fontface" : 0,
					"fontsize" : 11.595187,
					"background" : 0,
					"triangle" : 1,
					"mouseup" : 0,
					"cantchange" : 0,
					"hbgcolor" : [ 0.0, 0.0, 0.0, 1.0 ],
					"minimum" : "<none>",
					"bordercolor" : [ 0.5, 0.5, 0.5, 1.0 ],
					"triscale" : 1.0,
					"ignoreclick" : 0,
					"numinlets" : 1,
					"htextcolor" : [ 1.0, 1.0, 1.0, 1.0 ],
					"maximum" : "<none>",
					"presentation_rect" : [ 0.0, 0.0, 0.0, 0.0 ],
					"outputonclick" : 0,
					"hidden" : 0,
					"bgcolor" : [ 1.0, 1.0, 1.0, 1.0 ],
					"numoutlets" : 2
				}

			}
, 			{
				"box" : 				{
					"maxclass" : "message",
					"text" : "print",
					"fontname" : "Arial",
					"patching_rect" : [ 123.0, 56.0, 33.0, 18.0 ],
					"outlettype" : [ "" ],
					"presentation" : 0,
					"id" : "obj-2",
					"textcolor" : [ 0.0, 0.0, 0.0, 1.0 ],
					"fontface" : 0,
					"fontsize" : 11.595187,
					"background" : 0,
					"bgcolor2" : [ 0.867, 0.867, 0.867, 1.0 ],
					"ignoreclick" : 0,
					"numinlets" : 2,
					"presentation_rect" : [ 0.0, 0.0, 0.0, 0.0 ],
					"hidden" : 0,
					"bgcolor" : [ 0.867, 0.867, 0.867, 1.0 ],
					"gradient" : 0,
					"numoutlets" : 1
				}

			}
, 			{
				"box" : 				{
					"maxclass" : "newobj",
					"text" : "serial c 9600",
					"fontname" : "Arial",
					"patching_rect" : [ 123.0, 89.0, 77.0, 20.0 ],
					"outlettype" : [ "int", "" ],
					"presentation" : 0,
					"id" : "obj-1",
					"textcolor" : [ 0.0, 0.0, 0.0, 1.0 ],
					"fontface" : 0,
					"fontsize" : 11.595187,
					"background" : 0,
					"color" : [ 0.356863, 0.768627, 0.0, 1.0 ],
					"ignoreclick" : 0,
					"numinlets" : 1,
					"presentation_rect" : [ 0.0, 0.0, 0.0, 0.0 ],
					"hidden" : 0,
					"bgcolor" : [ 1.0, 1.0, 1.0, 1.0 ],
					"numoutlets" : 2
				}

			}
 ],
		"lines" : [ 			{
				"patchline" : 				{
					"source" : [ "obj-160", 0 ],
					"destination" : [ "obj-154", 0 ],
					"hidden" : 0,
					"color" : [ 0.0, 0.0, 0.0, 1.0 ],
					"midpoints" : [  ]
				}

			}
, 			{
				"patchline" : 				{
					"source" : [ "obj-166", 0 ],
					"destination" : [ "obj-160", 0 ],
					"hidden" : 0,
					"color" : [ 0.0, 0.0, 0.0, 1.0 ],
					"midpoints" : [  ]
				}

			}
, 			{
				"patchline" : 				{
					"source" : [ "obj-157", 0 ],
					"destination" : [ "obj-155", 0 ],
					"hidden" : 0,
					"color" : [ 0.0, 0.0, 0.0, 1.0 ],
					"midpoints" : [  ]
				}

			}
, 			{
				"patchline" : 				{
					"source" : [ "obj-155", 0 ],
					"destination" : [ "obj-154", 0 ],
					"hidden" : 0,
					"color" : [ 0.0, 0.0, 0.0, 1.0 ],
					"midpoints" : [  ]
				}

			}
, 			{
				"patchline" : 				{
					"source" : [ "obj-154", 0 ],
					"destination" : [ "obj-27", 0 ],
					"hidden" : 0,
					"color" : [ 0.0, 0.0, 0.0, 1.0 ],
					"midpoints" : [  ]
				}

			}
, 			{
				"patchline" : 				{
					"source" : [ "obj-152", 0 ],
					"destination" : [ "obj-147", 0 ],
					"hidden" : 0,
					"color" : [ 0.0, 0.0, 0.0, 1.0 ],
					"midpoints" : [  ]
				}

			}
, 			{
				"patchline" : 				{
					"source" : [ "obj-93", 0 ],
					"destination" : [ "obj-49", 1 ],
					"hidden" : 0,
					"color" : [ 0.0, 0.0, 0.0, 1.0 ],
					"midpoints" : [  ]
				}

			}
, 			{
				"patchline" : 				{
					"source" : [ "obj-8", 0 ],
					"destination" : [ "obj-93", 0 ],
					"hidden" : 0,
					"color" : [ 0.0, 0.0, 0.0, 1.0 ],
					"midpoints" : [  ]
				}

			}
, 			{
				"patchline" : 				{
					"source" : [ "obj-81", 0 ],
					"destination" : [ "obj-93", 1 ],
					"hidden" : 0,
					"color" : [ 0.0, 0.0, 0.0, 1.0 ],
					"midpoints" : [  ]
				}

			}
, 			{
				"patchline" : 				{
					"source" : [ "obj-150", 0 ],
					"destination" : [ "obj-147", 0 ],
					"hidden" : 0,
					"color" : [ 0.0, 0.0, 0.0, 1.0 ],
					"midpoints" : [  ]
				}

			}
, 			{
				"patchline" : 				{
					"source" : [ "obj-148", 1 ],
					"destination" : [ "obj-147", 0 ],
					"hidden" : 0,
					"color" : [ 0.0, 0.0, 0.0, 1.0 ],
					"midpoints" : [  ]
				}

			}
, 			{
				"patchline" : 				{
					"source" : [ "obj-148", 0 ],
					"destination" : [ "obj-147", 0 ],
					"hidden" : 0,
					"color" : [ 0.0, 0.0, 0.0, 1.0 ],
					"midpoints" : [  ]
				}

			}
, 			{
				"patchline" : 				{
					"source" : [ "obj-49", 0 ],
					"destination" : [ "obj-148", 0 ],
					"hidden" : 0,
					"color" : [ 0.0, 0.0, 0.0, 1.0 ],
					"midpoints" : [  ]
				}

			}
, 			{
				"patchline" : 				{
					"source" : [ "obj-57", 1 ],
					"destination" : [ "obj-13", 0 ],
					"hidden" : 0,
					"color" : [ 0.0, 0.0, 0.0, 1.0 ],
					"midpoints" : [  ]
				}

			}
, 			{
				"patchline" : 				{
					"source" : [ "obj-45", 0 ],
					"destination" : [ "obj-57", 0 ],
					"hidden" : 0,
					"color" : [ 0.0, 0.0, 0.0, 1.0 ],
					"midpoints" : [  ]
				}

			}
, 			{
				"patchline" : 				{
					"source" : [ "obj-10", 0 ],
					"destination" : [ "obj-27", 0 ],
					"hidden" : 0,
					"color" : [ 0.0, 0.0, 0.0, 1.0 ],
					"midpoints" : [  ]
				}

			}
, 			{
				"patchline" : 				{
					"source" : [ "obj-6", 0 ],
					"destination" : [ "obj-5", 0 ],
					"hidden" : 0,
					"color" : [ 0.0, 0.0, 0.0, 1.0 ],
					"midpoints" : [  ]
				}

			}
, 			{
				"patchline" : 				{
					"source" : [ "obj-4", 0 ],
					"destination" : [ "obj-7", 0 ],
					"hidden" : 0,
					"color" : [ 0.0, 0.0, 0.0, 1.0 ],
					"midpoints" : [  ]
				}

			}
, 			{
				"patchline" : 				{
					"source" : [ "obj-4", 2 ],
					"destination" : [ "obj-7", 0 ],
					"hidden" : 0,
					"color" : [ 0.0, 0.0, 0.0, 1.0 ],
					"midpoints" : [ 171.5, 189.0, 135.0, 189.0, 135.0, 194.0, 132.5, 194.0 ]
				}

			}
, 			{
				"patchline" : 				{
					"source" : [ "obj-7", 0 ],
					"destination" : [ "obj-8", 0 ],
					"hidden" : 0,
					"color" : [ 0.0, 0.0, 0.0, 1.0 ],
					"midpoints" : [  ]
				}

			}
, 			{
				"patchline" : 				{
					"source" : [ "obj-8", 0 ],
					"destination" : [ "obj-9", 0 ],
					"hidden" : 0,
					"color" : [ 0.0, 0.0, 0.0, 1.0 ],
					"midpoints" : [  ]
				}

			}
, 			{
				"patchline" : 				{
					"source" : [ "obj-23", 0 ],
					"destination" : [ "obj-4", 0 ],
					"hidden" : 0,
					"color" : [ 0.0, 0.0, 0.0, 1.0 ],
					"midpoints" : [  ]
				}

			}
, 			{
				"patchline" : 				{
					"source" : [ "obj-25", 0 ],
					"destination" : [ "obj-32", 0 ],
					"hidden" : 0,
					"color" : [ 0.0, 0.0, 0.0, 1.0 ],
					"midpoints" : [  ]
				}

			}
, 			{
				"patchline" : 				{
					"source" : [ "obj-33", 0 ],
					"destination" : [ "obj-25", 0 ],
					"hidden" : 0,
					"color" : [ 0.0, 0.0, 0.0, 1.0 ],
					"midpoints" : [  ]
				}

			}
, 			{
				"patchline" : 				{
					"source" : [ "obj-34", 0 ],
					"destination" : [ "obj-36", 0 ],
					"hidden" : 0,
					"color" : [ 0.0, 0.0, 0.0, 1.0 ],
					"midpoints" : [  ]
				}

			}
, 			{
				"patchline" : 				{
					"source" : [ "obj-36", 0 ],
					"destination" : [ "obj-35", 0 ],
					"hidden" : 0,
					"color" : [ 0.0, 0.0, 0.0, 1.0 ],
					"midpoints" : [  ]
				}

			}
, 			{
				"patchline" : 				{
					"source" : [ "obj-37", 0 ],
					"destination" : [ "obj-39", 0 ],
					"hidden" : 0,
					"color" : [ 0.0, 0.0, 0.0, 1.0 ],
					"midpoints" : [  ]
				}

			}
, 			{
				"patchline" : 				{
					"source" : [ "obj-39", 0 ],
					"destination" : [ "obj-38", 0 ],
					"hidden" : 0,
					"color" : [ 0.0, 0.0, 0.0, 1.0 ],
					"midpoints" : [  ]
				}

			}
, 			{
				"patchline" : 				{
					"source" : [ "obj-23", 0 ],
					"destination" : [ "obj-25", 1 ],
					"hidden" : 0,
					"color" : [ 0.0, 0.0, 0.0, 1.0 ],
					"midpoints" : [ 132.5, 146.0, 192.0, 146.0, 192.0, 150.0, 245.5, 150.0 ]
				}

			}
, 			{
				"patchline" : 				{
					"source" : [ "obj-7", 0 ],
					"destination" : [ "obj-36", 1 ],
					"hidden" : 0,
					"color" : [ 0.0, 0.0, 0.0, 1.0 ],
					"midpoints" : [ 132.5, 221.0, 320.5, 221.0 ]
				}

			}
, 			{
				"patchline" : 				{
					"source" : [ "obj-8", 0 ],
					"destination" : [ "obj-39", 1 ],
					"hidden" : 0,
					"color" : [ 0.0, 0.0, 0.0, 1.0 ],
					"midpoints" : [ 132.5, 249.0, 75.0, 249.0, 75.0, 255.0, 35.5, 255.0 ]
				}

			}
, 			{
				"patchline" : 				{
					"source" : [ "obj-1", 0 ],
					"destination" : [ "obj-23", 0 ],
					"hidden" : 0,
					"color" : [ 0.0, 0.0, 0.0, 1.0 ],
					"midpoints" : [  ]
				}

			}
, 			{
				"patchline" : 				{
					"source" : [ "obj-3", 0 ],
					"destination" : [ "obj-1", 0 ],
					"hidden" : 0,
					"color" : [ 0.0, 0.0, 0.0, 1.0 ],
					"midpoints" : [  ]
				}

			}
, 			{
				"patchline" : 				{
					"source" : [ "obj-2", 0 ],
					"destination" : [ "obj-1", 0 ],
					"hidden" : 0,
					"color" : [ 0.0, 0.0, 0.0, 1.0 ],
					"midpoints" : [  ]
				}

			}
, 			{
				"patchline" : 				{
					"source" : [ "obj-5", 0 ],
					"destination" : [ "obj-1", 0 ],
					"hidden" : 0,
					"color" : [ 0.0, 0.0, 0.0, 1.0 ],
					"midpoints" : [  ]
				}

			}
, 			{
				"patchline" : 				{
					"source" : [ "obj-83", 0 ],
					"destination" : [ "obj-81", 0 ],
					"hidden" : 0,
					"color" : [ 0.0, 0.0, 0.0, 1.0 ],
					"midpoints" : [  ]
				}

			}
, 			{
				"patchline" : 				{
					"source" : [ "obj-8", 0 ],
					"destination" : [ "obj-92", 0 ],
					"hidden" : 0,
					"color" : [ 0.0, 0.0, 0.0, 1.0 ],
					"midpoints" : [  ]
				}

			}
, 			{
				"patchline" : 				{
					"source" : [ "obj-92", 0 ],
					"destination" : [ "obj-81", 1 ],
					"hidden" : 0,
					"color" : [ 0.0, 0.0, 0.0, 1.0 ],
					"midpoints" : [  ]
				}

			}
, 			{
				"patchline" : 				{
					"source" : [ "obj-43", 0 ],
					"destination" : [ "obj-56", 0 ],
					"hidden" : 0,
					"color" : [ 0.0, 0.0, 0.0, 1.0 ],
					"midpoints" : [  ]
				}

			}
, 			{
				"patchline" : 				{
					"source" : [ "obj-56", 0 ],
					"destination" : [ "obj-83", 0 ],
					"hidden" : 0,
					"color" : [ 0.0, 0.0, 0.0, 1.0 ],
					"midpoints" : [  ]
				}

			}
, 			{
				"patchline" : 				{
					"source" : [ "obj-9", 0 ],
					"destination" : [ "obj-11", 0 ],
					"hidden" : 0,
					"color" : [ 0.0, 0.0, 0.0, 1.0 ],
					"midpoints" : [  ]
				}

			}
, 			{
				"patchline" : 				{
					"source" : [ "obj-9", 0 ],
					"destination" : [ "obj-12", 1 ],
					"hidden" : 0,
					"color" : [ 0.0, 0.0, 0.0, 1.0 ],
					"midpoints" : [  ]
				}

			}
, 			{
				"patchline" : 				{
					"source" : [ "obj-56", 1 ],
					"destination" : [ "obj-13", 0 ],
					"hidden" : 0,
					"color" : [ 0.0, 0.0, 0.0, 1.0 ],
					"midpoints" : [  ]
				}

			}
, 			{
				"patchline" : 				{
					"source" : [ "obj-17", 0 ],
					"destination" : [ "obj-49", 0 ],
					"hidden" : 0,
					"color" : [ 0.0, 0.0, 0.0, 1.0 ],
					"midpoints" : [  ]
				}

			}
, 			{
				"patchline" : 				{
					"source" : [ "obj-17", 0 ],
					"destination" : [ "obj-12", 0 ],
					"hidden" : 0,
					"color" : [ 0.0, 0.0, 0.0, 1.0 ],
					"midpoints" : [  ]
				}

			}
, 			{
				"patchline" : 				{
					"source" : [ "obj-12", 0 ],
					"destination" : [ "obj-68", 0 ],
					"hidden" : 0,
					"color" : [ 0.0, 0.0, 0.0, 1.0 ],
					"midpoints" : [  ]
				}

			}
, 			{
				"patchline" : 				{
					"source" : [ "obj-68", 0 ],
					"destination" : [ "obj-10", 0 ],
					"hidden" : 0,
					"color" : [ 0.0, 0.0, 0.0, 1.0 ],
					"midpoints" : [  ]
				}

			}
 ]
	}

}
